<svg width="41" height="40" viewBox="0 0 41 40" fill="none" xmlns="http://www.w3.org/2000/svg">
<path fill-rule="evenodd" clip-rule="evenodd" d="M12.5629 0.12C14.6956 0.0218182 15.3756 0 20.8083 0C26.2411 0 26.9211 0.0236363 29.052 0.12C31.1829 0.216364 32.6374 0.556364 33.9102 1.04909C35.2429 1.55273 36.452 2.34 37.452 3.35818C38.4702 4.35636 39.2556 5.56364 39.7574 6.89818C40.252 8.17091 40.5902 9.62545 40.6884 11.7527C40.7865 13.8891 40.8083 14.5691 40.8083 20C40.8083 25.4327 40.7847 26.1127 40.6884 28.2455C40.592 30.3727 40.252 31.8273 39.7574 33.1C39.2556 34.4347 38.4689 35.644 37.452 36.6436C36.452 37.6618 35.2429 38.4473 33.9102 38.9491C32.6374 39.4436 31.1829 39.7818 29.0556 39.88C26.9211 39.9782 26.2411 40 20.8083 40C15.3756 40 14.6956 39.9764 12.5629 39.88C10.4356 39.7836 8.98108 39.4436 7.70835 38.9491C6.37366 38.4472 5.16439 37.6605 4.16471 36.6436C3.14722 35.6449 2.35983 34.4362 1.85744 33.1018C1.36471 31.8291 1.02653 30.3745 0.92835 28.2473C0.830168 26.1109 0.80835 25.4309 0.80835 20C0.80835 14.5673 0.831986 13.8873 0.92835 11.7564C1.02471 9.62545 1.36471 8.17091 1.85744 6.89818C2.36057 5.56378 3.14857 4.35511 4.16653 3.35636C5.16479 2.33909 6.37284 1.55172 7.70653 1.04909C8.97926 0.556364 10.4356 0.218182 12.5629 0.12ZM28.8902 3.72C26.7811 3.62364 26.1483 3.60364 20.8083 3.60364C15.4684 3.60364 14.8356 3.62364 12.7265 3.72C10.7756 3.80909 9.71744 4.13455 9.01199 4.40909C8.07926 4.77273 7.41199 5.20364 6.71199 5.90364C6.04843 6.54919 5.53777 7.33506 5.21744 8.20364C4.94289 8.90909 4.61744 9.96727 4.52835 11.9182C4.43199 14.0273 4.41199 14.66 4.41199 20C4.41199 25.34 4.43199 25.9727 4.52835 28.0818C4.61744 30.0327 4.94289 31.0909 5.21744 31.7964C5.53744 32.6636 6.04835 33.4509 6.71199 34.0964C7.35744 34.76 8.14471 35.2709 9.01199 35.5909C9.71744 35.8655 10.7756 36.1909 12.7265 36.28C14.8356 36.3764 15.4665 36.3964 20.8083 36.3964C26.1502 36.3964 26.7811 36.3764 28.8902 36.28C30.8411 36.1909 31.8993 35.8655 32.6047 35.5909C33.5374 35.2273 34.2047 34.7964 34.9047 34.0964C35.5684 33.4509 36.0793 32.6636 36.3993 31.7964C36.6738 31.0909 36.9993 30.0327 37.0884 28.0818C37.1847 25.9727 37.2047 25.34 37.2047 20C37.2047 14.66 37.1847 14.0273 37.0884 11.9182C36.9993 9.96727 36.6738 8.90909 36.3993 8.20364C36.0356 7.27091 35.6047 6.60364 34.9047 5.90364C34.2591 5.24013 33.4733 4.72947 32.6047 4.40909C31.8993 4.13455 30.8411 3.80909 28.8902 3.72ZM18.2538 26.1655C19.6805 26.7593 21.269 26.8395 22.7482 26.3922C24.2274 25.945 25.5054 24.998 26.364 23.7132C27.2226 22.4283 27.6085 20.8852 27.4557 19.3475C27.303 17.8097 26.6211 16.3727 25.5265 15.2818C24.8288 14.5845 23.9851 14.0506 23.0562 13.7184C22.1274 13.3863 21.1364 13.2643 20.1547 13.3611C19.173 13.4579 18.225 13.7712 17.3789 14.2784C16.5328 14.7856 15.8097 15.4741 15.2616 16.2943C14.7136 17.1145 14.3541 18.046 14.2093 19.0217C14.0644 19.9975 14.1377 20.9933 14.4239 21.9373C14.71 22.8813 15.202 23.7502 15.8642 24.4813C16.5265 25.2124 17.3426 25.7876 18.2538 26.1655ZM13.5393 12.7309C14.4938 11.7763 15.6271 11.0191 16.8743 10.5025C18.1216 9.98586 19.4584 9.71995 20.8083 9.71995C22.1583 9.71995 23.4951 9.98585 24.7424 10.5025C25.9896 11.0191 27.1229 11.7763 28.0774 12.7309C29.032 13.6855 29.7893 14.8188 30.3059 16.066C30.8225 17.3132 31.0884 18.65 31.0884 20C31.0884 21.35 30.8225 22.6868 30.3059 23.934C29.7893 25.1812 29.032 26.3145 28.0774 27.2691C26.1496 29.197 23.5348 30.28 20.8083 30.28C18.0819 30.28 15.4671 29.197 13.5393 27.2691C11.6114 25.3412 10.5283 22.7264 10.5283 20C10.5283 17.2736 11.6114 14.6588 13.5393 12.7309ZM33.3684 11.2509C33.6049 11.0278 33.7943 10.7594 33.9253 10.4618C34.0563 10.1641 34.1262 9.84322 34.1309 9.51805C34.1357 9.19289 34.0751 8.87009 33.9529 8.56875C33.8306 8.2674 33.6491 7.99366 33.4192 7.76371C33.1892 7.53376 32.9155 7.35229 32.6142 7.23003C32.3128 7.10778 31.99 7.04723 31.6648 7.05197C31.3397 7.05671 31.0188 7.12664 30.7211 7.25763C30.4235 7.38862 30.1551 7.57799 29.932 7.81455C29.498 8.2746 29.2604 8.88568 29.2696 9.51805C29.2788 10.1504 29.5342 10.7543 29.9814 11.2015C30.4286 11.6487 31.0325 11.9041 31.6648 11.9133C32.2972 11.9225 32.9083 11.6849 33.3684 11.2509Z" fill="white"/>
</svg>
