<svg width="40" height="40" viewBox="0 0 40 40" fill="none" xmlns="http://www.w3.org/2000/svg">
<path fill-rule="evenodd" clip-rule="evenodd" d="M29.025 23.97C28.5283 23.7217 26.0933 22.525 25.64 22.3584C25.1866 22.1934 24.8566 22.1117 24.525 22.6084C24.195 23.1017 23.2466 24.2184 22.9583 24.5484C22.6683 24.88 22.38 24.92 21.885 24.6734C21.39 24.4234 19.7933 23.9017 17.9016 22.215C16.43 20.9017 15.435 19.28 15.1466 18.7834C14.8583 18.2884 15.115 18.02 15.3633 17.7734C15.5866 17.5517 15.8583 17.195 16.1066 16.9067C16.355 16.6167 16.4366 16.41 16.6016 16.0784C16.7683 15.7484 16.685 15.46 16.56 15.2117C16.4366 14.9634 15.4466 12.525 15.0333 11.5334C14.6316 10.5684 14.2233 10.7001 13.92 10.6834C13.63 10.6701 13.3 10.6667 12.97 10.6667C12.64 10.6667 12.1033 10.79 11.65 11.2867C11.195 11.7817 9.91665 12.98 9.91665 15.4184C9.91665 17.855 11.69 20.21 11.9383 20.5417C12.1866 20.8717 15.43 25.875 20.3983 28.02C21.5816 28.53 22.5033 28.835 23.2216 29.0617C24.4083 29.44 25.4883 29.3867 26.3416 29.2584C27.2916 29.1167 29.2716 28.06 29.6849 26.9034C30.0966 25.7467 30.0966 24.755 29.9733 24.5484C29.8499 24.3417 29.5199 24.2184 29.0233 23.97H29.025ZM19.9883 36.3083H19.9816C17.0307 36.3089 14.1339 35.5156 11.595 34.0117L10.995 33.655L4.75833 35.2917L6.42332 29.2117L6.03166 28.5884C4.38189 25.9623 3.50882 22.923 3.51333 19.8217C3.51666 10.7384 10.9066 3.3484 19.995 3.3484C24.395 3.3484 28.5316 5.06506 31.6416 8.17839C33.1756 9.70602 34.3914 11.5227 35.2187 13.5232C36.0461 15.5238 36.4685 17.6685 36.4616 19.8334C36.4583 28.9167 29.0683 36.3083 19.9883 36.3083ZM34.0083 5.81339C32.1719 3.96493 29.987 2.49929 27.5801 1.5014C25.1732 0.503507 22.5922 -0.00679373 19.9866 6.82958e-05C9.06332 6.82958e-05 0.17 8.89172 0.166666 19.82C0.165 23.3134 1.07666 26.7234 2.81166 29.7283L0 40L10.5066 37.2433C13.4131 38.8269 16.6701 39.6566 19.98 39.6567H19.9883C30.9116 39.6567 39.8049 30.765 39.8083 19.835C39.8163 17.2305 39.3079 14.6502 38.3123 12.2434C37.3168 9.83666 35.8539 7.65117 34.0083 5.81339Z" fill="white"/>
</svg>
